<svg width="196" height="48" viewBox="0 0 196 48" fill="none" xmlns="http://www.w3.org/2000/svg">
<path d="M27.0534 13.9394C25.8826 10.9194 23.7009 8.39886 20.88 6.80714C18.0591 5.21542 14.7736 4.65104 11.5832 5.21018C8.39288 5.76931 5.4951 7.41736 3.38364 9.87351C1.27218 12.3297 0.0776728 15.4419 0.00365596 18.6801C-0.0703609 21.9182 0.980689 25.0818 2.97772 27.6319C4.97475 30.1819 7.7942 31.9607 10.9557 32.665C14.1171 33.3693 17.425 32.9557 20.3157 31.4945C23.2063 30.0333 25.5009 27.6151 26.8085 24.6517L14 19L27.0534 13.9394Z" fill="#D3F85A"/>
<circle cx="6" cy="19" r="2" fill="#090F1D"/>
<path d="M58.208 45.144C57.632 45.592 56.5227 46.0933 54.88 46.648C53.2587 47.2027 51.4773 47.48 49.536 47.48C45.8453 47.48 42.816 46.3387 40.448 44.056C38.1013 41.7733 36.928 38.8933 36.928 35.416C36.928 31.9387 38.1653 29.016 40.64 26.648C43.1147 24.28 46.2293 23.096 49.984 23.096C52.6293 23.096 55.328 23.5547 58.08 24.472L58.72 30.008L58.432 30.104C56.7467 27.7573 55.2853 26.1147 54.048 25.176C52.8107 24.2373 51.36 23.768 49.696 23.768C48.3307 23.768 47.136 24.056 46.112 24.632C45.1093 25.1867 44.3093 25.9973 43.712 27.064C43.1147 28.1307 42.6773 29.3573 42.4 30.744C42.1227 32.1093 41.984 33.6667 41.984 35.416C41.984 38.936 42.624 41.72 43.904 43.768C45.184 45.7947 47.072 46.808 49.568 46.808C51.5307 46.808 53.1733 46.168 54.496 44.888C55.8187 43.608 57.1733 41.6347 58.56 38.968L58.848 39.064L58.208 45.144ZM61.7853 47V46.936C62.2759 45.336 62.5213 43.3733 62.5213 41.048V37.336C62.5213 35.5013 62.0199 33.976 61.0173 32.76V32.696L66.4893 30.936V34.84H66.5213C66.6279 34.7333 66.8946 34.4347 67.3213 33.944C67.7479 33.4533 68.0786 33.0907 68.3133 32.856C68.5693 32.6213 68.8999 32.3333 69.3053 31.992C69.7319 31.6507 70.1586 31.416 70.5853 31.288C71.0119 31.1387 71.4493 31.0747 71.8973 31.096L71.6093 35.672H71.4493C71.1293 35.3093 70.6386 34.9893 69.9773 34.712C69.3373 34.4347 68.8146 34.296 68.4093 34.296C67.8546 34.296 67.2573 34.68 66.6173 35.448V41.048C66.6173 43.6507 66.8626 45.6133 67.3533 46.936V47H61.7853ZM80.506 31.672C79.5033 31.672 78.714 32.1733 78.138 33.176C77.5833 34.1787 77.2633 35.4587 77.178 37.016L83.066 36.888V36.152C83.066 33.1653 82.2127 31.672 80.506 31.672ZM87.13 42.584C86.682 44.056 85.882 45.24 84.73 46.136C83.5993 47.032 82.1913 47.48 80.506 47.48C78.2873 47.48 76.4847 46.7333 75.098 45.24C73.7327 43.7253 73.05 41.8373 73.05 39.576C73.05 37.1013 73.8073 35.0747 75.322 33.496C76.8367 31.896 78.618 31.096 80.666 31.096C82.6073 31.096 84.1753 31.7787 85.37 33.144C86.586 34.488 87.1727 35.9707 87.13 37.592L77.178 37.56V37.656C77.178 39.96 77.658 41.656 78.618 42.744C79.5993 43.8107 80.9327 44.344 82.618 44.344C84.4527 44.344 85.8927 43.7253 86.938 42.488L87.13 42.584ZM94.6895 45.272C95.4788 45.272 96.1615 45.0587 96.7375 44.632V39.608C93.8788 40.3333 92.4495 41.5387 92.4495 43.224C92.4495 43.864 92.6415 44.3653 93.0255 44.728C93.4308 45.0907 93.9855 45.272 94.6895 45.272ZM99.8415 47.416C98.9882 47.416 98.3055 47.2133 97.7935 46.808C97.2815 46.4027 96.9615 45.8587 96.8335 45.176C95.6175 46.712 94.0922 47.48 92.2575 47.48C91.2335 47.48 90.3908 47.2347 89.7295 46.744C89.0895 46.2533 88.7695 45.5173 88.7695 44.536C88.7695 41.8907 91.4255 40.056 96.7375 39.032V36.216C96.7375 35.2773 96.5135 34.584 96.0655 34.136C95.6175 33.688 94.8388 33.464 93.7295 33.464C92.1722 33.464 90.7748 33.8587 89.5375 34.648L89.3775 34.424C91.1268 32.2053 93.4308 31.096 96.2895 31.096C97.8682 31.096 99.0202 31.4587 99.7455 32.184C100.471 32.9093 100.834 33.88 100.834 35.096V43.8C100.834 44.7387 101.271 45.208 102.146 45.208C102.636 45.208 103.106 45.0373 103.554 44.696L103.618 44.792C102.764 46.5413 101.506 47.416 99.8415 47.416ZM109.8 47.48C107.155 47.48 105.832 46.104 105.832 43.352V32.216H104.072V31.992L109.608 27.928H109.928V31.576H113.928V32.216H109.928V43.224C109.928 44.8667 110.686 45.688 112.2 45.688C112.542 45.688 112.872 45.6453 113.192 45.56C113.512 45.4747 113.747 45.4 113.896 45.336C114.046 45.2507 114.142 45.1867 114.184 45.144L114.28 45.24C113.32 46.7333 111.827 47.48 109.8 47.48ZM120.96 25.976C120.96 26.616 120.726 27.16 120.256 27.608C119.808 28.056 119.264 28.28 118.624 28.28C117.984 28.28 117.44 28.056 116.992 27.608C116.544 27.16 116.32 26.616 116.32 25.976C116.32 25.3573 116.544 24.824 116.992 24.376C117.44 23.9067 117.984 23.672 118.624 23.672C119.264 23.672 119.808 23.9067 120.256 24.376C120.726 24.824 120.96 25.3573 120.96 25.976ZM116.128 46.936C116.64 45.0373 116.896 43.0747 116.896 41.048V37.432C116.896 35.5547 116.384 34.04 115.36 32.888V32.696L120.96 30.936V41.048C120.96 43.6293 121.206 45.592 121.696 46.936V47H116.128V46.936ZM124.895 35.864C124.127 33.9013 123.369 32.4933 122.623 31.64V31.576H129.247V31.64C128.991 32.0453 128.841 32.5893 128.799 33.272C128.777 33.9547 128.927 34.776 129.247 35.736L131.647 42.072L133.951 36.344C134.207 35.6613 134.345 34.9893 134.367 34.328C134.388 33.6453 134.335 33.1013 134.207 32.696C134.079 32.2693 133.919 31.9173 133.727 31.64V31.576H137.407V31.64C136.404 32.728 135.529 34.1787 134.783 35.992L130.239 47.288H129.407L124.895 35.864ZM144.819 31.672C143.816 31.672 143.027 32.1733 142.451 33.176C141.896 34.1787 141.576 35.4587 141.491 37.016L147.379 36.888V36.152C147.379 33.1653 146.525 31.672 144.819 31.672ZM151.443 42.584C150.995 44.056 150.195 45.24 149.043 46.136C147.912 47.032 146.504 47.48 144.819 47.48C142.6 47.48 140.797 46.7333 139.411 45.24C138.045 43.7253 137.363 41.8373 137.363 39.576C137.363 37.1013 138.12 35.0747 139.635 33.496C141.149 31.896 142.931 31.096 144.979 31.096C146.92 31.096 148.488 31.7787 149.683 33.144C150.899 34.488 151.485 35.9707 151.443 37.592L141.491 37.56V37.656C141.491 39.96 141.971 41.656 142.931 42.744C143.912 43.8107 145.245 44.344 146.931 44.344C148.765 44.344 150.205 43.7253 151.251 42.488L151.443 42.584Z" fill="white"/>
<path d="M159.002 45.272C159.791 45.272 160.474 45.0587 161.05 44.632V39.608C158.191 40.3333 156.762 41.5387 156.762 43.224C156.762 43.864 156.954 44.3653 157.338 44.728C157.743 45.0907 158.298 45.272 159.002 45.272ZM164.154 47.416C163.301 47.416 162.618 47.2133 162.106 46.808C161.594 46.4027 161.274 45.8587 161.146 45.176C159.93 46.712 158.405 47.48 156.57 47.48C155.546 47.48 154.703 47.2347 154.042 46.744C153.402 46.2533 153.082 45.5173 153.082 44.536C153.082 41.8907 155.738 40.056 161.05 39.032V36.216C161.05 35.2773 160.826 34.584 160.378 34.136C159.93 33.688 159.151 33.464 158.042 33.464C156.485 33.464 155.087 33.8587 153.85 34.648L153.69 34.424C155.439 32.2053 157.743 31.096 160.602 31.096C162.181 31.096 163.333 31.4587 164.058 32.184C164.783 32.9093 165.146 33.88 165.146 35.096V43.8C165.146 44.7387 165.583 45.208 166.458 45.208C166.949 45.208 167.418 45.0373 167.866 44.696L167.93 44.792C167.077 46.5413 165.818 47.416 164.154 47.416ZM169.16 47V46.936C169.651 45.336 169.896 43.3733 169.896 41.048V37.336C169.896 35.5013 169.395 33.976 168.392 32.76V32.696L173.864 30.936V34.84H173.896C174.003 34.7333 174.27 34.4347 174.696 33.944C175.123 33.4533 175.454 33.0907 175.688 32.856C175.944 32.6213 176.275 32.3333 176.68 31.992C177.107 31.6507 177.534 31.416 177.96 31.288C178.387 31.1387 178.824 31.0747 179.272 31.096L178.984 35.672H178.824C178.504 35.3093 178.014 34.9893 177.352 34.712C176.712 34.4347 176.19 34.296 175.784 34.296C175.23 34.296 174.632 34.68 173.992 35.448V41.048C173.992 43.6507 174.238 45.6133 174.728 46.936V47H169.16ZM186.238 47.48C183.592 47.48 182.27 46.104 182.27 43.352V32.216H180.51V31.992L186.046 27.928H186.366V31.576H190.366V32.216H186.366V43.224C186.366 44.8667 187.123 45.688 188.638 45.688C188.979 45.688 189.31 45.6453 189.63 45.56C189.95 45.4747 190.184 45.4 190.334 45.336C190.483 45.2507 190.579 45.1867 190.622 45.144L190.718 45.24C189.758 46.7333 188.264 47.48 186.238 47.48Z" fill="#D3F85A"/>
</svg>
